#!OML:ASF I:\Actors\actors\Patient Classification 2\Patient 1\Session 1\actor1.ASF
:FULLY-SPECIFIED
:DEGREES
500
root -1.13918 17.869 5.50844 -6.04068 14.86 -4.35503
lowerback 13.9064 2.57372 7.92946
upperback 1.10453 4.77822 1.83838
thorax -6.13436 2.15575 -3.39392
lowerneck -1.9802 13.3653 16.7125
upperneck 12.9733 18.8956 -12.2875
head 7.05356 9.37497 -4.89999
rclavicle 5.77966e-014 -5.1684e-015
rhumerus -20.2063 -15.2577 -70.4154
rradius 130.967
rwrist -44.4005
rhand -17.2893 -41.3178
rfingers 7.12502
rthumb 8.95622 -71.1077
lclavicle 5.77966e-014 -5.1684e-015
lhumerus -56.1687 -18.1655 105.785
lradius 102.229
lwrist 23.5759
lhand -7.52123 -14.9016
lfingers 7.12502
lthumb 18.3695 14.251
rfemur 26.1051 -8.83818 20.258
rtibia -18.5231
rfoot -13.5195 -20.6141
rtoes 2.35148
lfemur 23.9856 -5.58783 -11.8001
ltibia -30.1206
lfoot 10.7785 7.9151
ltoes -21.2694
501
root -1.14383 17.8666 5.51457 -5.97879 14.4468 -4.44375
lowerback 13.7435 2.54537 7.87484
upperback 1.01434 4.72262 1.85378
thorax -6.1524 2.12722 -3.33066
lowerneck -2.37874 13.3824 16.3603
upperneck 12.5223 18.7471 -11.8102
head 6.87165 9.29584 -4.70208
rclavicle -1.61016e-014 -1.03368e-014
rhumerus -19.7604 -15.145 -70.3026
rradius 130.981
rwrist -44.3524
rhand -17.3685 -41.2765
rfingers 7.12502
rthumb 8.8798 -71.0697
lclavicle -1.61016e-014 -1.03368e-014
lhumerus -55.9522 -18.3694 105.643
lradius 102.178
lwrist 23.4996
lhand -7.5877 -15.0273
lfingers 7.12502
lthumb 18.3055 14.1314
rfemur 25.9585 -8.72167 20.3782
rtibia -18.4685
rfoot -13.2966 -20.3719
rtoes 1.99942
lfemur 24.0366 -5.4842 -11.6588
ltibia -30.1484
lfoot 10.7034 8.15898
ltoes -20.9629
502
root -1.14887 17.8578 5.51859 -6.03557 13.9415 -4.58726
lowerback 13.6913 2.56611 7.96123
upperback 0.961232 4.75707 1.79734
thorax -6.16466 2.13893 -3.44237
lowerneck -2.66028 13.29 16.2179
upperneck 11.9983 18.438 -11.2742
head 6.64059 9.15636 -4.54858
rclavicle -4.6938e-014 -8.74653e-015
rhumerus -19.287 -15.15 -70.3331
rradius 130.854
rwrist -44.2384
rhand -17.3107 -40.901
rfingers 7.12502
rthumb 8.93552 -70.6918
lclavicle -4.6938e-014 -8.74653e-015
lhumerus -55.6338 -18.7991 105.433
lradius 102.075
lwrist 23.3027
lhand -7.61816 -15.0751
lfingers 7.12502
lthumb 18.2762 14.0863
rfemur 25.9901 -8.61875 20.5312
rtibia -18.5735
rfoot -12.9463 -20.1269
rtoes 1.82464
lfemur 24.2409 -5.30256 -11.4648
ltibia -30.2481
lfoot 10.6995 8.3622
ltoes -20.7221
503
root -1.15476 17.8447 5.51986 -6.20617 13.4 -4.72992
lowerback 13.7604 2.5687 8.02192
upperback 0.963632 4.77519 1.78177
thorax -6.19233 2.14444 -3.4999
lowerneck -2.65009 13.1257 16.3523
upperneck 11.3707 18.1034 -11.0612
head 6.38458 9.00997 -4.55955
rclavicle -1.29955e-014 5.56597e-015
rhumerus -18.6069 -15.057 -70.4565
rradius 130.52
rwrist -44.1564
rhand -17.2397 -40.7235
rfingers 7.12502
rthumb 9.00408 -70.5113
lclavicle -1.29955e-014 5.56597e-015
lhumerus -55.1983 -19.1313 105.272
lradius 101.967
lwrist 22.9704
lhand -7.57704 -14.9536
lfingers 7.12502
lthumb 18.3158 14.2041
rfemur 26.1749 -8.54889 20.6559
rtibia -18.7562
rfoot -12.5261 -19.8844
rtoes 1.72285
lfemur 24.5795 -5.09248 -11.2811
ltibia -30.3703
lfoot 10.6962 8.55939
ltoes -20.7976
504
root -1.15928 17.8352 5.5216 -6.31053 12.9014 -4.79166
lowerback 13.7195 2.53848 7.93242
upperback 0.991766 4.71755 1.81431
thorax -6.15571 2.12154 -3.40258
lowerneck -2.72569 12.9289 16.3709
upperneck 11.0328 17.7341 -10.7317
head 6.20956 8.84394 -4.51161
rclavicle 1.95306e-014 -1.35174e-014
rhumerus -18.0609 -14.8183 -70.467
rradius 130.3
rwrist -44.1633
rhand -17.2442 -40.8097
rfingers 7.12502
rthumb 8.99971 -70.5978
lclavicle 1.95306e-014 -1.35174e-014
lhumerus -54.681 -19.2246 105.175
lradius 101.867
lwrist 22.4574
lhand -7.57914 -14.8696
lfingers 7.12502
lthumb 18.3138 14.2883
rfemur 26.3258 -8.54059 20.6766
rtibia -18.9561
rfoot -12.0237 -19.625
rtoes 1.3448
lfemur 24.8531 -4.97324 -11.2025
ltibia -30.4653
lfoot 10.6505 8.84622
ltoes -21.1767
505
root -1.16192 17.8311 5.52588 -6.35461 12.392 -4.79506
lowerback 13.624 2.51619 7.80611
upperback 0.971278 4.65945 1.803
thorax -6.1397 2.09667 -3.32945
lowerneck -2.76613 12.652 16.4336
upperneck 10.9695 17.265 -10.2664
head 6.09506 8.63967 -4.43681
rclavicle 5.06777e-014 2.66371e-014
rhumerus -17.9083 -14.5692 -70.4139
rradius 130.201
rwrist -44.1071
rhand -17.1689 -40.8199
rfingers 7.12502
rthumb 9.07237 -70.6047
lclavicle 5.06777e-014 2.66371e-014
lhumerus -54.3011 -19.3326 105.094
lradius 101.874
lwrist 21.9489
lhand -7.77957 -14.8408
lfingers 7.12502
lthumb 18.1209 14.335
rfemur 26.4139 -8.54768 20.624
rtibia -19.1176
rfoot -11.5396 -19.3083
rtoes 0.830371
lfemur 25.0653 -4.88382 -11.1919
ltibia -30.4871
lfoot 10.5406 9.16885
ltoes -21.5366
506
root -1.16361 17.8306 5.53271 -6.41661 11.8254 -4.75843
lowerback 13.5835 2.50131 7.66176
upperback 0.887101 4.61581 1.75902
thorax -6.2195 2.07297 -3.28915
lowerneck -2.96665 12.2542 16.2454
upperneck 11.4399 16.5859 -9.24443
head 6.08045 8.35061 -4.15917
rclavicle 7.70291e-015 2.66371e-014
rhumerus -18.7242 -14.1582 -70.814
rradius 130.848
rwrist -43.7261
rhand -17.0128 -40.7979
rfingers 7.12502
rthumb 9.22298 -70.5762
lclavicle 7.70291e-015 2.66371e-014
lhumerus -54.1571 -19.3798 105.076
lradius 102.004
lwrist 21.5765
lhand -7.91492 -14.7849
lfingers 7.12502
lthumb 17.9907 14.403
rfemur 26.505 -8.47421 20.5346
rtibia -19.2073
rfoot -11.1686 -18.9662
rtoes 0.435839
lfemur 25.3066 -4.79009 -11.233
ltibia -30.4311
lfoot 10.3517 9.4977
ltoes -21.8423
507
root -1.16287 17.8284 5.55001 -6.55339 10.9327 -4.69051
lowerback 13.4968 2.57021 7.43364
upperback 0.854192 4.66545 1.75612
thorax -6.21851 2.10271 -3.16984
lowerneck -3.37898 11.8095 15.6275
upperneck 12.4144 15.7863 -7.63423
head 6.17309 8.02076 -3.62766
rclavicle 3.97569e-015 1.27222e-014
rhumerus -18.4195 -13.9023 -70.6681
rradius 130.298
rwrist -43.9744
rhand -16.8111 -40.7399
rfingers 7.12502
rthumb 9.41758 -70.5095
lclavicle 3.97569e-015 1.27222e-014
lhumerus -54.035 -19.1088 105.076
lradius 102.019
lwrist 21.3195
lhand -7.83584 -14.7425
lfingers 7.12502
lthumb 18.0668 14.4384
rfemur 26.6651 -8.07603 20.4605
rtibia -19.206
rfoot -10.8665 -18.5699
rtoes 0.208558
lfemur 25.7446 -4.4109 -11.2779
ltibia -30.3276
lfoot 10.109 9.77962
ltoes -22.5321
508
root -1.16394 17.8248 5.56615 -6.71157 10.0706 -4.67721
lowerback 13.422 2.61958 7.25511
upperback 0.824264 4.6991 1.76764
thorax -6.2203 2.12347 -3.06072
lowerneck -3.80406 11.3446 14.9168
upperneck 13.6763 14.978 -6.07521
head 6.37668 7.69431 -3.08833
rclavicle -1.87914e-014 1.74931e-014
rhumerus -18.6993 -13.5569 -70.8937
rradius 130.3
rwrist -43.7255
rhand -16.5316 -40.6047
rfingers 7.12502
rthumb 9.68727 -70.3619
lclavicle -1.87914e-014 1.74931e-014
lhumerus -53.9634 -18.7001 105.093
lradius 101.906
lwrist 21.2276
lhand -7.90723 -14.8409
lfingers 7.12502
lthumb 17.9981 14.3463
rfemur 26.7854 -7.56208 20.4928
rtibia -19.1065
rfoot -10.7641 -18.2618
rtoes 0.51774
lfemur 26.1604 -4.01781 -11.2554
ltibia -30.2071
lfoot 9.93321 9.98891
ltoes -23.3722
